<svg xmlns="http://www.w3.org/2000/svg" viewBox="0 0 100 100" width="100" height="100">
  <defs>
    <linearGradient id="fvGold" x1="0" y1="0" x2="1" y2="1">
      <stop offset="0" stop-color="#FFC062"/><stop offset="1" stop-color="#FF9800"/>
    </linearGradient>
    <linearGradient id="fvGreen" x1="0" y1="0" x2="1" y2="1">
      <stop offset="0" stop-color="#66BB6A"/><stop offset="1" stop-color="#388E3C"/>
    </linearGradient>
  </defs>
  <rect width="100" height="100" rx="24" fill="#22302A"/>
  <!-- leaf -->
  <path d="M40 82 C 14 62 16 26 40 8 C 45 42 56 62 40 82 Z" fill="url(#fvGreen)"/>
  <path d="M40 14 C 35 44 35 66 40 80" stroke="#2E7D32" stroke-width="2" fill="none" opacity="0.6"/>
  <!-- wheat ear -->
  <path d="M66 84 L 66 40" stroke="#FF9800" stroke-width="4" stroke-linecap="round"/>
  <g fill="url(#fvGold)">
    <path d="M66 30 C 72 37 72 47 66 53 C 60 47 60 37 66 30 Z"/>
    <path d="M65 46 C 56 49 53 58 57 65 C 66 62 69 53 65 46 Z"/>
    <path d="M67 46 C 76 49 79 58 75 65 C 66 62 63 53 67 46 Z"/>
  </g>
</svg>
